# xmcd
#
# Track frame offsets:
#	150
#	18585
#	35995
#	50104
#	66841
#	79998
#	102119
#	122118
#	136236
#	156671
#	173930
#	193777
#
# Disc length: 3804 seconds
#
# Revision: 1
# Processed by: cddbd v1.5.2PL0 Copyright (c) Steve Scherf et al.
# Submitted via: audiograbber 1.83.01
#
DISCID=b50eda0c
DTITLE=Mark Wise and Armadillo - Every Road
DYEAR=2000
DGENRE=Guitar
TTITLE0=Surrender
TTITLE1=Time Flys Like Superman
TTITLE2=Wasn´t Life Grand
TTITLE3=Poem Song 2
TTITLE4=Desperate Times
TTITLE5=Every Road
TTITLE6=Home In Texas
TTITLE7=Livin The Way I Do
TTITLE8=Lifetime of Leaving
TTITLE9=Mr. Right Gone Wrong
TTITLE10=Columbus Day
TTITLE11=Daten-CD
EXTD=
EXTT0=
EXTT1=
EXTT2=
EXTT3=
EXTT4=
EXTT5=
EXTT6=
EXTT7=
EXTT8=
EXTT9=
EXTT10=
EXTT11=
PLAYORDER=
